<svg width="97" height="98" viewBox="0 0 97 98" fill="none" xmlns="http://www.w3.org/2000/svg">
<g filter="url(#filter0_d_1_78)">
<path d="M53.6985 13.0839C53.6369 13.0839 53.5846 13.0711 53.5415 13.0457C53.4984 13.0202 53.4645 12.9756 53.4399 12.9119L52.9043 11.6122L51.5561 11.0006C51.4945 10.9751 51.4514 10.9401 51.4268 10.8955C51.4021 10.8509 51.3898 10.7967 51.3898 10.733C51.3898 10.6693 51.4021 10.6152 51.4268 10.5706C51.4514 10.526 51.4945 10.4909 51.5561 10.4655L52.9043 9.87297L53.4399 8.63065C53.4645 8.56695 53.4984 8.52235 53.5415 8.49687C53.5846 8.47138 53.6369 8.45864 53.6985 8.45864C53.76 8.45864 53.8124 8.47138 53.8554 8.49687C53.8985 8.52235 53.9324 8.56695 53.957 8.63065L54.4926 9.87297L55.8409 10.4655C55.9024 10.4909 55.9455 10.526 55.9701 10.5706C55.9948 10.6152 56.0071 10.6693 56.0071 10.733C56.0071 10.7967 55.9948 10.8509 55.9701 10.8955C55.9455 10.9401 55.9024 10.9751 55.8409 11.0006L54.4926 11.6122L53.957 12.9119C53.9324 12.9756 53.8985 13.0202 53.8554 13.0457C53.8124 13.0711 53.76 13.0839 53.6985 13.0839ZM53.6985 24.475C53.6492 24.475 53.6 24.4622 53.5507 24.4368C53.5015 24.4113 53.4645 24.3667 53.4399 24.303L52.9043 23.0607L51.5745 22.4682C51.513 22.4427 51.4699 22.4076 51.4452 22.363C51.4206 22.3184 51.4083 22.2643 51.4083 22.2006C51.4083 22.1369 51.4206 22.0827 51.4452 22.0381C51.4699 21.9935 51.513 21.9585 51.5745 21.933L52.9043 21.3405L53.4399 20.0218C53.4645 19.958 53.4984 19.9134 53.5415 19.888C53.5846 19.8625 53.6369 19.8497 53.6985 19.8497C53.76 19.8497 53.8124 19.8625 53.8554 19.888C53.8985 19.9134 53.9324 19.958 53.957 20.0218L54.4926 21.3405L55.8224 21.933C55.884 21.9585 55.9271 21.9935 55.9517 22.0381C55.9763 22.0827 55.9886 22.1369 55.9886 22.2006C55.9886 22.2643 55.9763 22.3184 55.9517 22.363C55.9271 22.4076 55.884 22.4427 55.8224 22.4682L54.4926 23.0607L53.957 24.303C53.9324 24.3667 53.8955 24.4113 53.8462 24.4368C53.797 24.4622 53.7477 24.475 53.6985 24.475ZM45.5906 21.1685C45.4921 21.1685 45.3966 21.1398 45.3043 21.0825C45.2119 21.0252 45.1411 20.9455 45.0919 20.8436L43.8914 18.1869L41.3057 16.9829C41.2072 16.9319 41.1303 16.8586 41.0749 16.7631C41.0195 16.6675 40.9918 16.5687 40.9918 16.4668C40.9918 16.3649 41.0195 16.2661 41.0749 16.1706C41.1303 16.075 41.2072 16.0017 41.3057 15.9508L43.8914 14.7467L45.0919 12.1091C45.1411 11.9945 45.2119 11.9085 45.3043 11.8511C45.3966 11.7938 45.4921 11.7651 45.5906 11.7651C45.6891 11.7651 45.7845 11.7938 45.8768 11.8511C45.9692 11.9085 46.04 11.9881 46.0892 12.09L47.3082 14.7467L49.8754 15.9508C49.9862 16.0017 50.0693 16.075 50.1247 16.1706C50.1801 16.2661 50.2078 16.3649 50.2078 16.4668C50.2078 16.5687 50.1801 16.6675 50.1247 16.7631C50.0693 16.8586 49.9862 16.9319 49.8754 16.9829L47.3082 18.1869L46.0892 20.8436C46.04 20.9583 45.9692 21.0411 45.8768 21.0921C45.7845 21.143 45.6891 21.1685 45.5906 21.1685Z" fill="#435334"/>
</g>
<defs>
<filter id="filter0_d_1_78" x="-4.96417e-05" y="1.14558e-05" width="96.999" height="98" filterUnits="userSpaceOnUse" color-interpolation-filters="sRGB">
<feFlood flood-opacity="0" result="BackgroundImageFix"/>
<feColorMatrix in="SourceAlpha" type="matrix" values="0 0 0 0 0 0 0 0 0 0 0 0 0 0 0 0 0 0 127 0" result="hardAlpha"/>
<feOffset dy="32.5"/>
<feGaussianBlur stdDeviation="20.475"/>
<feComposite in2="hardAlpha" operator="out"/>
<feColorMatrix type="matrix" values="0 0 0 0 0.262745 0 0 0 0 0.0941176 0 0 0 0 1 0 0 0 0.28 0"/>
<feBlend mode="normal" in2="BackgroundImageFix" result="effect1_dropShadow_1_78"/>
<feBlend mode="normal" in="SourceGraphic" in2="effect1_dropShadow_1_78" result="shape"/>
</filter>
</defs>
</svg>
